<svg xmlns="http://www.w3.org/2000/svg" version="1.1" viewBox="0 0 915 916" width="915" height="916">
<path transform="translate(436,151)" d="m0 0h43l27 3 29 6 26 8 24 10 16 8 18 10 15 10 12 9 11 9 12 11 20 20 9 11 12 16 11 17 10 18 10 21 10 27 7 27 4 22 2 17 1 17v20l-2 27-5 30-7 26-8 22-9 20-11 21-16 24-10 13-12 14-12 13-8 7-12 11-20 15-19 12-18 10-24 11-33 11-27 6-21 3-11 1h-46l-25-3-25-5-21-6-20-7-20-9-21-11-17-11-14-10-11-9-11-10-8-7-9-9-7-8-13-16-12-17-12-20-9-17-10-24-7-21-6-24-4-24-2-23v-32l2-23 4-24 6-24 9-26 8-18 8-16 8-14 10-15 12-16 12-14 14-15 12-11 16-13 17-12 20-12 19-10 27-11 26-8 29-6zm1 9-27 3-24 5-21 6-22 8-25 12-18 10-19 13-14 11-11 10-8 7-10 10-7 8-13 16-14 21-10 17-12 25-9 24-7 26-5 28-2 23v30l2 23 4 24 8 30 7 19 8 18 12 23 16 24 11 14 9 10 7 8 12 12 8 7 15 12 19 13 15 9 17 9 24 10 21 7 25 6 25 4 11 1h45l31-4 26-6 30-10 18-8 20-10 19-12 15-11 11-9 10-9 8-7 7-7 7-8 11-13 13-18 12-20 10-19 11-27 8-26 6-31 2-17 1-16v-20l-2-26-4-24-7-28-7-20-11-25-11-20-14-21-10-13-11-13-15-16-8-7-14-12-18-13-18-11-23-12-19-8-27-9-27-6-21-3-11-1z" fill="#000000"/>
<path transform="translate(374,107)" d="m0 0h19l18 4 13 5 15 8 9 7h-3l-21-11-19-6-6-1h-26l-12 3-10 6-4 7-1 10 3 6 8 4 9-1 5-4 6-10 1 3-5 10-7 6-3 1h-9l-8-4-5-6-1-4v-9l4-9 5-6 12-6z" fill="#000000"/>
<path transform="translate(131,470)" d="m0 0 1 2-9 16-7 19-3 14v24l3 12 5 9 6 5 6 2h7l6-3 3-6v-9l-4-6-8-5-2-1 1-2 10 4 5 5 3 4 1 8-3 9-4 5-6 3h-11l-8-3-8-8-4-8-3-11-1-7v-14l3-17 7-19 8-14z" fill="#000000"/>
<path transform="translate(235,696)" d="m0 0 2 3 6 20 8 16 7 11 9 10 8 7 10 6 11 3 10-2 6-4 3-5v-7l-3-6-5-4h-13l-6 1 3-3 10-3 8 1 6 4 4 5 2 5v8l-3 6-8 7-10 3-10-1-10-4-11-8-8-7-10-13-8-16-6-18-2-11z" fill="#000000"/>
<path transform="translate(531,106)" d="m0 0h15l15 3 10 5 5 4 5 9 1 4v7l-3 8-8 6-4 1h-8l-6-3-6-7-3-9 3 3 6 8 7 3 8-1 6-4 2-9-3-10-8-7-11-4-6-1h-23l-17 4-15 6-15 8-5 3 1-3 15-10 17-8 13-4z" fill="#000000"/>
<path transform="translate(698,238)" d="m0 0 13 1 17 5 16 7 12 8 11 10 9 13 4 9 1 4v8l-3 9-6 7-5 3h-11l-6-3-6-7-1-2v-12l4-9 1 3-1 4v11l3 5 6 4h9l5-2 2-4 3-8-1-10-7-14-11-12-11-9-15-8-16-6-16-4z" fill="#000000"/>
<path transform="translate(151,596)" d="m0 0h7l9 4 5 6 1 3v11l-4 9-1-3 1-3v-12l-4-6-7-3h-6l-6 4-4 6-1 10 3 10 7 11 13 13 14 9 18 8 22 6v1l-12-1-19-5-17-8-14-10-9-9-9-14-3-10v-8l4-10 7-7z" fill="#000000"/>
<path transform="translate(613,140)" d="m0 0h13l12 5 12 9 9 9 10 15 7 16 5 19v8h-1l-5-19-8-18-7-11-11-13-12-9-12-5h-11l-7 4-5 6v7l4 8 7 3h7l9-2v2l-11 4h-8l-8-4-5-8-1-10 4-8 8-6z" fill="#000000"/>
<path transform="translate(677,698)" d="m0 0h1v9l-4 17-7 17-6 10-7 9-10 10-11 7-7 3-5 1h-8l-10-4-7-7-2-6 1-9 5-8 7-4h11l9 4-3 1-4-1h-10l-6 3-3 5-1 9 4 6 7 4 3 1h7l11-4 10-7 9-8 9-12 8-16 6-16z" fill="#000000"/>
<path transform="translate(752,596)" d="m0 0h10l6 4 6 7 2 5v13l-4 11-7 10-9 10-12 9-15 8-18 6-10 2h-6l4-2 17-5 21-10 12-9 11-11 8-13 2-6v-11l-4-8-5-4h-10l-6 4-3 7 1 11 1 5-3-3-3-9v-7l4-8 5-4z" fill="#000000"/>
<path transform="translate(783,472)" d="m0 0 5 5 9 14 7 15 5 19 1 9v9l-2 13-4 11-6 8-8 5-3 1h-12l-6-4-4-5-2-5v-9l4-7 8-6 7-2v2l-10 6-4 7v7l3 6 3 3 3 1h8l9-4 6-9 4-16v-19l-3-15-6-17-9-17-3-4z" fill="#000000"/>
<path transform="translate(288,137)" d="m0 0h14l8 4 7 8 1 2v9l-3 7-5 5-9 3-11-2-5-3 2-1 4 1h13l5-2 2-5 1-2v-9l-5-6-6-3h-12l-10 4-13 10-9 10-9 15-7 17-4 15-2 6-1-2 3-18 6-18 8-15 8-10 10-10 13-8z" fill="#000000"/>
<path transform="translate(349,764)" d="m0 0h9l8 4 6 9 1 6-4-5-6-7-5-2-9 1-5 3-2 4v10l4 8 5 4 9 4 11 2h19l18-4 15-6 15-8 4-3 2 1-10 8-16 9-21 7-15 2-17-1-13-4-8-5-6-7-2-5v-14l4-6z" fill="#000000"/>
<path transform="translate(212,237)" d="m0 0h6l-4 2-16 5-16 7-11 7-11 9-9 11-7 14-1 10 4 10 5 4 2 1 9-1 6-4 2-4v-12l-1-6 3 3 2 5v13l-4 6-5 4-7 2-9-1-9-8-3-6-1-5v-7l3-10 6-11 11-12 11-9 12-7 15-6z" fill="#000000"/>
<path transform="translate(772,340)" d="m0 0h14l8 4 8 9 4 10 2 10v21l-4 18-7 16-6 11-7 9v-3l7-12 6-15 4-13 2-15v-10l-3-17-5-10-6-5-4-2h-11l-4 2-4 8 1 9 6 7 8 4-4 1-8-4-5-5-3-6v-8l5-10z" fill="#000000"/>
<path transform="translate(556,761)" d="m0 0 9 1 7 4 4 5 1 3v11l-3 8-8 8-11 5-9 2-15 1-16-2-17-5-16-8-12-8-1-2 5 2 15 8 21 7 11 2h20l16-4 8-5 4-5 2-5v-9l-3-5-5-3-6-1-8 3-5 6-3 6-2-1 4-10 4-5 5-3z" fill="#000000"/>
<path transform="translate(126,338)" d="m0 0h14l6 4 4 6 1 3v10l-5 8-8 5-6 1 5-4 7-6 2-5-1-9-3-5-3-2h-12l-8 5-5 8-4 16v17l3 16 7 19 9 16 3 5-3-1-9-13-8-15-5-15-2-10v-24l3-12 5-9 8-7z" fill="#000000"/>
<path transform="translate(775,236)" d="m0 0h7l11 4 9 7 7 10 9 17 8 10 7 5 3 1h8l4-5-1-5-4-4h-7v-2l6-1 6 3 3 5v6l-6 7-7 1-9-3-9-7-9-11-11-20-9-9-9-5-8-2z" fill="#000000"/>
<path transform="translate(58,304)" d="m0 0h8l7 6 3 7 1 6v11l-3 15-4 17v9l3 11 4 8-4-2-5-6-3-7-1-5v-10l7-28 1-11-2-11-3-5-2-1h-7l-3 3v8l4 5-5-2-2-3v-10z" fill="#000000"/>
<path transform="translate(631,69)" d="m0 0 7 1 5 5 1 2v6l-2 1-1-7-4-4h-6l-4 4v7l5 8 7 7 14 8 13 7 9 8 5 8 2 7v8h-2l-3-10-8-11-10-7-17-9-12-11-4-5-3-6v-9l4-6z" fill="#000000"/>
<path transform="translate(72,625)" d="m0 0h11l10 6 7 7 7 10 9 16 7 8 10 6 9 3v1h-11l-12-6-7-7-8-14-8-13-7-8-6-4-3-1h-7l-4 3-1 4 3 6 9 2-2 2-7-1-5-5-1-2v-6l5-6z" fill="#000000"/>
<path transform="translate(602,54)" d="m0 0h8l5 4 1 2v8l-4 6-8 4-5 1h-15l-28-7h-13l-10 3-7 3 2-4 9-6 7-2h14l25 7 7 1h9l10-3 3-4v-9l-3-1h-7l-5 3 2-4z" fill="#000000"/>
<path transform="translate(679,774)" d="m0 0h1v11l-4 9-7 8-8 6-18 10-10 8-5 7-1 3v8l1 3 7 1 5-3 1-2v-7h2l1 6-4 7-4 2h-6l-5-3-3-7 1-8 6-10 7-7 14-9 11-6 10-9 6-11z" fill="#000000"/>
<path transform="translate(78,524)" d="m0 0v3l-4 10-1 6v8l4 16 4 15v19l-4 9-6 5h-8l-6-5v-10l5-5 2 1-4 4-1 5 2 5 2 1h7l4-4 2-6v-14l-4-16-4-12-1-6v-9l3-10 4-6z" fill="#000000"/>
<path transform="translate(135,237)" d="m0 0h7v2l-11 4-6 4-7 7-12 22-7 9-8 8-9 4h-8l-7-6v-9l5-5 2-1h6l-8 4-2 3 1 7 4 3 8-1 6-4 7-7 8-14 8-15 5-6 9-6z" fill="#000000"/>
<path transform="translate(838,525)" d="m0 0 7 6 4 9 1 5v11l-4 15-3 11-1 7v9l3 10 3 3 5 1 5-2 1-2v-7l-5-6 5 2 3 4v8l-4 5-2 1h-9l-6-5-3-7-1-5v-15l4-17 3-12v-11l-4-13z" fill="#000000"/>
<path transform="translate(320,838)" d="m0 0h13l14 3 16 4h11l10-3 8-4-2 4-6 5-7 3-5 1h-11l-12-3-15-4-13-1-9 2-6 4-1 6 2 4 2 1h8l3-4 2 1-4 5-2 1h-8l-6-5v-10l4-5 9-4z" fill="#000000"/>
<path transform="translate(236,772)" d="m0 0h1l3 10 6 9 8 7 22 12 11 9 6 9 2 5v7l-4 6-3 2h-7l-6-5-1-2v-7l2-1v6l2 4 4 2 6-1 3-5-1-7-4-6-5-5-8-6-16-8-10-7-8-9-3-7-1-11z" fill="#000000"/>
<path transform="translate(278,66)" d="m0 0 7 2 4 5v11l-6 10-9 9-11 7-12 7-10 9-6 12-2 6h-1v-10l4-10 7-8 7-6 17-9 10-8 6-7 2-4v-8l-4-4h-6l-3 1-1 3v8h-2l-1-7 3-5 3-3z" fill="#000000"/>
<path transform="translate(846,304)" d="m0 0h7l5 4 1 2v9l-5 5-2-1 4-4v-8l-3-3h-7l-3 1-3 9v15l4 16 4 13v15l-4 11-5 6h-2l2-5 3-10v-15l-6-21-1-5v-20l3-8 5-5z" fill="#000000"/>
<path transform="translate(310,56)" d="m0 0h10l5 5-1 2-4-4-5-1-5 2-1 2v7l4 4 6 2h15l16-4 13-4h15l10 4 7 6-1 2-10-5-5-1h-14l-21 6-5 1h-20l-9-4-5-6v-8z" fill="#000000"/>
<path transform="translate(580,835)" d="m0 0h18l8 3 5 4 2 4v7l-4 5-2 1h-9l-4-3 1-2 6 3 7-2 1-2v-6l-4-5-6-2h-14l-16 4-13 4-11 1-10-2-8-4-5-6 6 2 8 3 10 1 16-3 13-4z" fill="#000000"/>
<path transform="translate(831,622)" d="m0 0h8l6 4 2 4-1 7-4 5-2 1h-7l-1-2h6l5-4v-7l-3-3-7-1-8 4-9 10-9 16-6 11-9 9-8 4-3 1h-10l3-2 10-4 10-9 7-11 8-15 11-12 8-5z" fill="#000000"/>
<path transform="translate(845,400)" d="m0 0h17l9 3 9 8 7 11 13 27v2l6 1 5-3 1-2 1-10 2 3v7l-4 6-3 2h-6l-5-3-14-26-8-11-5-5-8-4-4-1h-26v-2z" fill="#000000"/>
<path transform="translate(438,1)" d="m0 0h12l5 4 1 2v7l-4 5-26 14-11 8-6 7-3 9-1 14v12l-2-2-2-10v-18l3-9 7-8 14-9 26-12 2-6-2-4-4-2-9-1z" fill="#000000"/>
<path transform="translate(683,764)" d="m0 0 5 4 7 8 10 7 8 3 14-1 21-6 13-4h6l5 3 2 7-3 7-4 4-2-1 5-6v-8l-3-2-8 1-23 9-13 3h-11l-10-4-11-10-8-12z" fill="#000000"/>
<path transform="translate(6,465)" d="m0 0h8l5 5 10 18 7 11 8 10 8 4 4 1h27v2l-12 3h-19l-10-4-8-8-9-15-10-22-3-2-7 1-2 3-1 11-2-3v-7l3-6z" fill="#000000"/>
<path transform="translate(127,144)" d="m0 0 7 1 4 4 1 7-7 24-3 17 1 11 6 10 12 12 4 3-1 2-11-7-10-9-6-10-1-4v-10l3-14 7-20 2-6-1-6-4-2-6 1-5 3 2-4z" fill="#000000"/>
<path transform="translate(903,463)" d="m0 0 7 1 4 4 1 3v9h-1l-2-9-4-4-7 1-7 15-9 19-8 10-7 5-6 2h-21l-9-2-1-2h20l11-2 8-5 7-8 9-16 9-17 3-3z" fill="#000000"/>
<path transform="translate(761,684)" d="m0 0 5 2 11 8 7 7 5 9 1 11-3 16-9 25v7l2 2h7l7-4-2 4-4 3h-9l-5-5v-8l7-24 2-10v-16l-6-10-9-10-7-6z" fill="#000000"/>
<path transform="translate(143,124)" d="m0 0 2 1-3 5v7l4 3 6-1 25-10 14-3h9l10 4 10 9 8 10 2 5h-2l-7-8-9-8-9-5-10-1-15 3-29 9-7-2-3-4v-8z" fill="#000000"/>
<path transform="translate(401,834)" d="m0 0 1 4v16l2 11 5 8 7 6 17 10 19 10 2 4-1 8-5 4-3 1h-7l-2-2 10-1 4-3v-7l-8-5-21-9-11-7-6-5-4-6-2-7v-20l2-9z" fill="#000000"/>
<path transform="translate(512,832)" d="m0 0 2 1 3 13v16l-3 9-7 8-9 7-16 8-15 7-1 2v6l3 3 2 1 9 1v1h-11l-5-3-2-4 1-8 5-4 24-13 12-9 5-6 3-10z" fill="#000000"/>
<path transform="translate(150,685)" d="m0 0 2 1-14 14-6 10-1 2v14l6 23 5 15-1 7-5 4h-8l-6-4 1-2 5 3h9l1-7-10-26-3-11v-17l5-9 6-7 12-9z" fill="#000000"/>
<path transform="translate(782,143)" d="m0 0h6l6 4 3 3-1 2-6-5-7-1-3 2-1 6 9 23 4 15v14l-5 10-8 9-10 7-5 2 6-7 5-4 8-11 3-7v-12l-5-20-5-15-1-6 2-5z" fill="#000000"/>
<path transform="translate(474)" d="m0 0 8 1v1l-9 1-4 1-1 9 8 5 20 9 10 6 10 9 4 11v18l-3 12h-1v-18l-2-13-4-8-10-8-16-9-17-9-3-6 1-6 5-5z" fill="#000000"/>
<path transform="translate(52,400)" d="m0 0h19l9 2 1 2h-18l-12 2-8 4-8 10-11 20-6 12-5 4h-7l-5-4-1-2v-12h1l1 9 3 5 6 1 4-4 11-25 6-10 9-10z" fill="#000000"/>
<path transform="translate(768,123)" d="m0 0 4 2 3 5-1 9-3 3-8 1-28-8-10-2h-11l-8 3-10 8-10 11-1-2 7-11 10-10 10-5h15l15 4 21 8h6l3-4-1-7z" fill="#000000"/>
<path transform="translate(231,763)" d="m0 0 1 2-7 11-10 10-10 5h-15l-16-4-22-8-6 1-1 7 3 6 2 3-4-2-3-4-1-7 3-5 3-2h9l24 7 10 2h13l10-5 10-9z" fill="#000000"/>
<path transform="translate(233,731)" d="m0 0 2 2 8 20 10 16 10 11 10 7 13 6 12 3 7 1v2h-12l-14-3-14-7-10-9-7-8-8-14-5-13-2-9z" fill="#000000"/>
<path transform="translate(177,235)" d="m0 0h6l-2 2-15 6-15 8-11 9-7 7-8 13-5 14-2 12-2 1v-14l3-13 6-12 9-11 10-8 12-7 13-5z" fill="#000000"/>
<path transform="translate(114,613)" d="m0 0 2 2 4 17 8 15 8 10 13 10 15 8 19 7v1h-7l-17-5-16-8-11-9-8-9-7-14-3-12z" fill="#000000"/>
<path transform="translate(292,115)" d="m0 0h9l-1 2-17 4-14 7-10 8-8 9-9 15-10 25h-1l1-10 5-16 7-14 8-10 8-8 14-8 10-3z" fill="#000000"/>
<path transform="translate(538,86)" d="m0 0h20l14 4 11 6 11 10-1 2-14-9-13-5-9-2h-18l-19 4-19 8-5 2 1-3 15-9 16-6z" fill="#000000"/>
<path transform="translate(744,181)" d="m0 0h10l5 5 1 2v12l-5 8-9 8-15 7-17 5-14 2v-2l19-6 15-6 13-8 6-7 1-3v-9l-3-3h-7l-4 3-1 5h-2v-6l5-6z" fill="#000000"/>
<path transform="translate(162,181)" d="m0 0h8l5 3 3 4v6l-2-2-3-5-2-1h-9l-1 4v7l4 8 8 6 14 7 18 6 11 3-1 2-18-3-17-5-13-7-8-7-4-8v-10l3-5z" fill="#000000"/>
<path transform="translate(733,235)" d="m0 0 10 1 16 5 15 8 13 11 7 10 5 10 3 12v14l-2-3-4-16-8-16-11-12-12-9-16-8-16-6z" fill="#000000"/>
<path transform="translate(719,159)" d="m0 0h12l6 5 1 2v8l-4 6-4 2h-5v-2l6-2 2-4-1-9h-11l-6 3-7 8-8 16-7 21-2 7h-1l1-13 5-19 8-16 5-7 7-5z" fill="#000000"/>
<path transform="translate(612,119)" d="m0 0h17l13 4 11 6 11 10 9 13 7 15 4 15-1 4-5-12-8-16-9-13-10-10-13-8-15-5-11-2z" fill="#000000"/>
<path transform="translate(364,87)" d="m0 0h20l17 4 17 8 8 6-2 1-19-8-15-4-6-1h-19l-15 4-14 7-7 5v-3l10-9 14-7z" fill="#000000"/>
<path transform="translate(588,806)" d="m0 0 2 1-10 10-10 6-10 4-11 2h-11l-17-3-15-6-12-7-2-3 6 2 15 6 17 4 17 1 16-3 14-6z" fill="#000000"/>
<path transform="translate(449,791)" d="m0 0 1 2-9 17-6 15-3 13v8l3 8 5 4 7-1 3-7-2-7 5 4v9l-4 6-4 2h-6l-6-4-5-6-2-6v-10l4-15 8-16 7-11z" fill="#000000"/>
<path transform="translate(226,698)" d="m0 0h1l-1 12-5 19-5 12-7 11-8 6-2 1h-13l-6-5-1-2v-7l4-7 5-2 4 1-4 2-3 3-1 2v6l3 3h10l6-4 6-7 8-16 6-19z" fill="#000000"/>
<path transform="translate(687,699)" d="m0 0 2 3 8 24 8 16 8 9 7 3 9-1 2-3-1-7-2-3-5-2v-1h6l5 4 2 4v7l-4 6-5 2h-9l-8-4-8-8-8-16-5-16-2-10z" fill="#000000"/>
<path transform="translate(810,495)" d="m0 0 5 5 8 14 5 14 2 11v17l-4 15-6 11-10 11-2-1 7-10 5-11 4-16v-15l-3-16-7-19-4-8z" fill="#000000"/>
<path transform="translate(847,464)" d="m0 0h8l6 4 2 3v8l-5 7-7 4-4 1h-9l-13-3-19-9-16-11 3-1 19 10 16 6 10 2h7l8-3 4-4v-7l-4-3-5-1-5 2 2-4z" fill="#000000"/>
<path transform="translate(324,810)" d="m0 0 5 2 8 5 8 4 17 4h14l20-4 15-6 8-4 3 1-10 7-17 8-11 3-7 1h-16l-12-3-9-4-9-6-7-7z" fill="#000000"/>
<path transform="translate(835,429)" d="m0 0h14l8 4 5 6 1 8-4 6-6 3-7-1-3-2 1-2 7 1 5-3 1-7-5-5-4-2h-13l-16 5-19 9-8 5-2-1 10-8 15-9 12-5z" fill="#000000"/>
<path transform="translate(474,52)" d="m0 0 7 1 7 6 3 6 1 11-4 16-8 17-11 16-2-1 11-21 6-17 2-14-3-9-4-4-6-1-4 4-1 6 2 5-4-2-1-2v-9l3-5z" fill="#000000"/>
<path transform="translate(680,733)" d="m0 0h2l-3 16-5 13-6 11-7 9-8 8-14 8-9 3-6 1h-13l3-2 16-4 14-7 10-8 10-12 8-14 6-15z" fill="#000000"/>
<path transform="translate(697,689)" d="m0 0 19 3 21 7 11 7 7 7 3 8v7l-3 6-3 3-6 1-8-3-3-4v-6l2 3 4 4h10l1-9-3-8-8-7-16-8-21-7-7-2z" fill="#000000"/>
<path transform="translate(215,688)" d="m0 0 2 1-7 3-18 6-16 8-9 7-4 6v11l5 3 7-2 2-2 1-4h2l-1 7-6 5-7 1-6-3-3-4v-13l5-8 8-7 16-8 17-5z" fill="#000000"/>
<path transform="translate(63,463)" d="m0 0 6 1 3 4-8-1-6 4v6l5 5 4 2h13l16-5 28-14v2l-14 10-17 9-13 4h-15l-7-4-5-6-1-2v-6l4-6z" fill="#000000"/>
<path transform="translate(186,158)" d="m0 0h8l10 5 7 8 8 16 5 16 2 10v5l-2-2-7-21-8-16-4-6-4-5-5-3-9-1-5 3v7l1 4 7 2v1h-7l-5-5-1-2v-9l4-5z" fill="#000000"/>
<path transform="translate(463,791)" d="m0 0 5 5 8 11 8 16 4 13v14l-3 6-8 7h-9l-5-5-2-4 1-8 3-3 2 1-2 3 1 7 2 3 6 1 6-5 2-5v-12l-5-16-9-19-5-8z" fill="#000000"/>
<path transform="translate(104,494)" d="m0 0 2 1-8 19-4 16-1 8v13l3 14 5 12 7 11v3l-10-10-5-8-5-14-1-6v-16l3-15 7-17z" fill="#000000"/>
<path transform="translate(69,428)" d="m0 0 13 1 15 5 15 8 11 8 1 2-5-2-21-10-16-5-12-1-8 3-3 1-2 5 1 7 9 2 5-2-2 4-2 1h-9l-7-6v-9l4-6 5-4z" fill="#000000"/>
<path transform="translate(806,327)" d="m0 0 7 6 6 7 6 12 3 11v22l-4 15-7 16-6 9h-2l2-5 8-21 3-15v-20l-4-15-7-14-5-6z" fill="#000000"/>
<path transform="translate(104,326)" d="m0 0v3l-6 10-4 9-3 10-1 7v12l3 17 7 19 4 8-1 2-6-8-8-16-4-14-1-7v-15l4-15 6-11 9-10z" fill="#000000"/>
<path transform="translate(441,53)" d="m0 0h9l6 7 1 6-2 5-4 2 2-4-1-7-1-3-7-1-6 5-2 4v14l4 14 10 21 4 7-1 2-9-12-11-21-3-10v-16l4-8 5-4z" fill="#000000"/>
<path transform="translate(796,611)" d="m0 0h1v18l-4 13-7 12-12 12-14 9-15 6-15 3v-2l16-6 15-8 12-9 7-7 7-11 5-11 3-13z" fill="#000000"/>
<path transform="translate(227,734)" d="m0 0 2 1-2 12-8 16-9 8-9 3h-7l-10-3-6-4 2-1 6 2 10 1 10-3 6-4 7-10 7-15z" fill="#000000"/>
<path transform="translate(717,144)" d="m0 0 11 1 10 5 1 2-9-2h-14l-8 4-7 7-9 17-3 6-1-2 3-14 6-11 6-7 9-5z" fill="#000000"/>
<path transform="translate(423,816)" d="m0 0 1 3-5 14-2 10v7l3 9 4 6 11 7 3 1v2l-9-2-10-6-6-9-2-6v-10l4-14 7-11z" fill="#000000"/>
<path transform="translate(732,688)" d="m0 0 11 1 13 5 10 8 4 6 2 6v11l-4 10-3 3 2-12v-8l-4-10-7-7-10-6-14-6z" fill="#000000"/>
<path transform="translate(686,735)" d="m0 0 3 4 8 16 9 10 9 4h11l12-3-4 4-10 4h-13l-8-4-6-5-6-10-4-10z" fill="#000000"/>
<path transform="translate(873,479)" d="m0 0 1 3-4 11-7 8-8 4-5 1h-8l-12-3-11-6-4-4 6 1 15 5 13 1 10-3 6-5 6-10z" fill="#000000"/>
<path transform="translate(41,479)" d="m0 0 3 3 6 9 7 6 6 2h14l18-6 5-2-2 4-10 6-11 4h-16l-8-4-8-9-4-11z" fill="#000000"/>
<path transform="translate(838,414)" d="m0 0h15l10 5 7 8 4 13h-2l-6-11-7-6-7-3h-13l-17 5-7 2 5-5 14-7z" fill="#000000"/>
<path transform="translate(480,42)" d="m0 0 8 1 8 4 8 9 2 5 1 11-3 13-6 11-3 4-2-1 6-16 1-5v-16l-4-8-8-7-8-4z" fill="#000000"/>
<path transform="translate(65,413)" d="m0 0 13 1 13 5 8 6-2 1-15-5-14-2-10 2-8 6-7 11-2 2 1-8 5-9 8-7z" fill="#000000"/>
<path transform="translate(767,179)" d="m0 0 3 3 4 9 1 11-4 11-4 5-10 7-10 4-4 1h-7l2-2 16-8 8-6 6-8 1-3v-14z" fill="#000000"/>
<path transform="translate(437,42)" d="m0 0 4 1-12 7-5 6-3 7v15l7 21-1 2-7-10-4-9-1-4v-16l5-10 7-6z" fill="#000000"/>
<path transform="translate(490,816)" d="m0 0 5 5 7 14 1 4v14l-3 8-5 6-8 5-6 2-4-1 10-6 5-4 4-7 1-4v-12l-4-14z" fill="#000000"/>
<path transform="translate(175,688)" d="m0 0h6l-4 3-16 8-9 8-4 8-1 9 3 15-4-4-4-11v-9l4-10 9-9 12-6z" fill="#000000"/>
<path transform="translate(189,144)" d="m0 0h12l10 5 8 9 5 10 3 14h-2l-8-16-8-11-6-4-6-2h-9l-13 3 4-4z" fill="#000000"/>
<path transform="translate(147,180)" d="m0 0 1 2-2 8v12l5 10 7 6 15 8 8 3v1h-8l-15-5-9-7-5-6-3-7v-13l4-9z" fill="#000000"/>
<path transform="translate(702,246)" d="m0 0 6 2 19 11 14 10 6 7-1 5-5 4-4-1 3-5-2-5-36-27z" fill="#000000"/>
<path transform="translate(213,245)" d="m0 0 1 2-16 12-16 13-5 6 4 7h-5l-5-5 1-7 10-9 15-10z" fill="#000000"/>
<path transform="translate(528,777)" d="m0 0 3 1 1 2v7l-2 3-8 1-21-3-23-6-1-2 19 2 15 2 16 1z" fill="#000000"/>
<path transform="translate(271,171)" d="m0 0 7 1 3 4v5l-8-4-8 9-12 17-9 13-1-3 9-17 12-18z" fill="#000000"/>
<path transform="translate(134,479)" d="m0 0h1l-1 16-3 25v8l8 2v2l-4 2h-6l-4-4v-11l4-22z" fill="#000000"/>
<path transform="translate(669,702)" d="m0 0 1 2-10 19-11 16-7 7-4 1-5-3-2-4v-3l5 2 4 1 8-9 13-18z" fill="#000000"/>
<path transform="translate(638,174)" d="m0 0h6l5 4 11 15 10 17 3 5-1 2-10-12-12-16-8-9-5 2-3 1v-5z" fill="#000000"/>
<path transform="translate(525,124)" d="m0 0 9 1 3 5-1 6-3 2-3-8-20 2-28 4v-2l25-7z" fill="#000000"/>
<path transform="translate(244,701)" d="m0 0 5 5 12 15 11 14 4 3 7-4v5l-5 5-6-1-7-7-12-17-9-16z" fill="#000000"/>
<path transform="translate(175,633)" d="m0 0h4l-2 5-1 4 15 12 17 12 5 5-6-2-18-10-14-10-5-5v-6z" fill="#000000"/>
<path transform="translate(779,385)" d="m0 0h9l2 3v13l-5 25-4 13h-1l1-15 3-23 1-11-9-2z" fill="#000000"/>
<path transform="translate(389,125)" d="m0 0h11l25 5 14 4 1 2-40-5h-9l-2 8-4-4v-6z" fill="#000000"/>
<path transform="translate(733,633)" d="m0 0 5 1 4 4 1 4-7 8-12 9-13 8-9 5-2-1 11-9 16-12 9-8-1-4z" fill="#000000"/>
<path transform="translate(780,481)" d="m0 0 2 2 7 25 2 11v14l-3 3h-7l-3-2v-2l8-1-2-20-4-25z" fill="#000000"/>
<path transform="translate(383,779)" d="m0 0 2 1 1 7 25-3 19-3h5l-2 2-25 7-10 2h-15l-2-3v-8z" fill="#000000"/>
<path transform="translate(126,383)" d="m0 0h8l2 1v2l-8 2 3 23 4 26h-2l-7-24-3-15v-12z" fill="#000000"/>
<path transform="translate(120,766)" d="m0 0 2 1-1 2z" fill="#000000"/>
<path transform="translate(118,151)" d="m0 0v3z" fill="#000000"/>
<path transform="translate(146,122)" d="m0 0 2 1h-3z" fill="#000000"/>
<path transform="translate(765,121)" d="m0 0 3 1h-3z" fill="#000000"/>
<path transform="translate(794,765)" d="m0 0 2 1-2 1z" fill="#000000"/>
<path transform="translate(593,852)" d="m0 0" fill="#000000"/>
<path transform="translate(150,796)" d="m0 0 2 1z" fill="#000000"/>
<path transform="translate(80,277)" d="m0 0 2 1z" fill="#000000"/>
<path transform="translate(596,60)" d="m0 0" fill="#000000"/>
<path transform="translate(489,815)" d="m0 0" fill="#000000"/>
<path transform="translate(764,796)" d="m0 0" fill="#000000"/>
<path transform="translate(468,783)" d="m0 0" fill="#000000"/>
<path transform="translate(232,762)" d="m0 0" fill="#000000"/>
<path transform="translate(764,738)" d="m0 0" fill="#000000"/>
<path transform="translate(243,700)" d="m0 0" fill="#000000"/>
<path transform="translate(699,672)" d="m0 0" fill="#000000"/>
<path transform="translate(213,671)" d="m0 0" fill="#000000"/>
<path transform="translate(109,591)" d="m0 0" fill="#000000"/>
<path transform="translate(913,480)" d="m0 0" fill="#000000"/>
<path transform="translate(72,468)" d="m0 0" fill="#000000"/>
<path transform="translate(104,423)" d="m0 0" fill="#000000"/>
<path transform="translate(836,394)" d="m0 0" fill="#000000"/>
<path transform="translate(169,289)" d="m0 0" fill="#000000"/>
<path transform="translate(684,155)" d="m0 0" fill="#000000"/>
<path transform="translate(448,132)" d="m0 0" fill="#000000"/>
</svg>